<?xml version="1.0" encoding="UTF-8" standalone="no"?>
<!-- Created with Inkscape (http://www.inkscape.org/) -->

<svg
   xmlns:dc="http://purl.org/dc/elements/1.1/"
   xmlns:cc="http://creativecommons.org/ns#"
   xmlns:rdf="http://www.w3.org/1999/02/22-rdf-syntax-ns#"
   xmlns:svg="http://www.w3.org/2000/svg"
   xmlns="http://www.w3.org/2000/svg"
   xmlns:sodipodi="http://sodipodi.sourceforge.net/DTD/sodipodi-0.dtd"
   xmlns:inkscape="http://www.inkscape.org/namespaces/inkscape"
   width="1350"
   height="750"
   viewBox="0 0 357.18749 198.43751"
   version="1.1"
   id="svg1465"
   inkscape:export-filename="C:\Users\javim\Google Drive\Programación\Python\juegos\plataformas\images\background.png"
   inkscape:export-xdpi="96"
   inkscape:export-ydpi="96"
   inkscape:version="0.92.5 (2060ec1f9f, 2020-04-08)"
   sodipodi:docname="background.svg"
   enable-background="new">
  <defs
     id="defs1459" />
  <sodipodi:namedview
     id="base"
     pagecolor="#ffffff"
     bordercolor="#666666"
     borderopacity="1.0"
     inkscape:pageopacity="0.0"
     inkscape:pageshadow="2"
     inkscape:zoom="0.25"
     inkscape:cx="1471.1406"
     inkscape:cy="132.06719"
     inkscape:document-units="mm"
     inkscape:current-layer="layer6"
     showgrid="false"
     units="px"
     inkscape:snap-global="false"
     inkscape:window-width="1366"
     inkscape:window-height="705"
     inkscape:window-x="-8"
     inkscape:window-y="-8"
     inkscape:window-maximized="1"
     showguides="true"
     inkscape:snap-bbox="true"
     inkscape:bbox-paths="true"
     inkscape:bbox-nodes="true"
     inkscape:snap-bbox-edge-midpoints="true"
     inkscape:snap-bbox-midpoints="true"
     inkscape:object-paths="true"
     inkscape:snap-intersection-paths="true"
     inkscape:snap-smooth-nodes="true"
     inkscape:snap-midpoints="true"
     inkscape:snap-object-midpoints="true"
     inkscape:snap-center="true"
     inkscape:snap-text-baseline="true"
     inkscape:snap-page="true" />
  <metadata
     id="metadata1462">
    <rdf:RDF>
      <cc:Work
         rdf:about="">
        <dc:format>image/svg+xml</dc:format>
        <dc:type
           rdf:resource="http://purl.org/dc/dcmitype/StillImage" />
        <dc:title />
      </cc:Work>
    </rdf:RDF>
  </metadata>
  <g
     inkscape:groupmode="layer"
     id="layer2"
     inkscape:label="fondo"
     style="display:inline;opacity:1;">
    <rect
       style="opacity:1;vector-effect:none;fill:#ddc17f;fill-opacity:1;stroke:#db4e16;stroke-width:0;stroke-linecap:round;stroke-linejoin:round;stroke-miterlimit:4;stroke-dasharray:none;stroke-dashoffset:0;stroke-opacity:1;paint-order:markers fill stroke"
       id="rect936"
       width="357.1875"
       height="198.4375"
       x="0"
       y="0" />
    <rect
       style="opacity:1;vector-effect:none;fill:#ffffff;fill-opacity:0.63529412;stroke:#000000;stroke-width:1.5;stroke-linecap:round;stroke-linejoin:round;stroke-miterlimit:4;stroke-dasharray:none;stroke-dashoffset:0;stroke-opacity:1;paint-order:markers fill stroke"
       id="rect979"
       width="40.527939"
       height="14.287502"
       x="72.927505"
       y="39.320412"
       ry="7.1437511" />
    <rect
       style="display:inline;opacity:1;vector-effect:none;fill:#ffffff;fill-opacity:0.63529412;stroke:#000000;stroke-width:1.5;stroke-linecap:round;stroke-linejoin:round;stroke-miterlimit:4;stroke-dasharray:none;stroke-dashoffset:0;stroke-opacity:1;paint-order:markers fill stroke"
       id="rect979-2"
       width="40.527939"
       height="14.287502"
       x="133.72353"
       y="12.964585"
       ry="7.1437511" />
    <rect
       style="display:inline;opacity:1;vector-effect:none;fill:#ffffff;fill-opacity:0.63529412;stroke:#000000;stroke-width:1.5;stroke-linecap:round;stroke-linejoin:round;stroke-miterlimit:4;stroke-dasharray:none;stroke-dashoffset:0;stroke-opacity:1;paint-order:markers fill stroke"
       id="rect979-2-2-9-2"
       width="40.527939"
       height="14.287502"
       x="179.23184"
       y="36.247917"
       ry="7.1437511" />
    <rect
       style="display:inline;opacity:1;vector-effect:none;fill:#ffffff;fill-opacity:0.63529412;stroke:#000000;stroke-width:1.5;stroke-linecap:round;stroke-linejoin:round;stroke-miterlimit:4;stroke-dasharray:none;stroke-dashoffset:0;stroke-opacity:1;paint-order:markers fill stroke"
       id="rect979-2-2-9-2-6"
       width="21.014492"
       height="7.4083362"
       x="318.40268"
       y="19.314581"
       ry="3.7041681" />
    <rect
       style="display:inline;opacity:1;vector-effect:none;fill:#ffffff;fill-opacity:0.63529412;stroke:#000000;stroke-width:1.5;stroke-linecap:round;stroke-linejoin:round;stroke-miterlimit:4;stroke-dasharray:none;stroke-dashoffset:0;stroke-opacity:1;paint-order:markers fill stroke"
       id="rect979-2-2-9-2-6-8"
       width="31.068659"
       height="10.952778"
       x="296.93857"
       y="43.022224"
       ry="5.4763889" />
    <rect
       style="display:inline;opacity:1;vector-effect:none;fill:#ffffff;fill-opacity:0.63529412;stroke:#000000;stroke-width:1.5;stroke-linecap:round;stroke-linejoin:round;stroke-miterlimit:4;stroke-dasharray:none;stroke-dashoffset:0;stroke-opacity:1;paint-order:markers fill stroke"
       id="rect979-2-2-9-2-6-8-8"
       width="42.710323"
       height="19.81937"
       x="228.94069"
       y="9.9986877"
       ry="9.9096842" />
    <rect
       style="display:inline;opacity:1;vector-effect:none;fill:#ffffff;fill-opacity:0.63529414;stroke:#000000;stroke-width:1.5;stroke-linecap:round;stroke-linejoin:round;stroke-miterlimit:4;stroke-dasharray:none;stroke-dashoffset:0;stroke-opacity:1;paint-order:markers fill stroke"
       id="rect979-5-4"
       width="26.962599"
       height="12.321621"
       x="7.5172815"
       y="35.114189"
       ry="6.1608105" />
    <rect
       style="display:inline;opacity:1;vector-effect:none;fill:#ffffff;fill-opacity:0.63529414;stroke:#000000;stroke-width:1.5;stroke-linecap:round;stroke-linejoin:round;stroke-miterlimit:4;stroke-dasharray:none;stroke-dashoffset:0;stroke-opacity:1;paint-order:markers fill stroke"
       id="rect979-5-4-9"
       width="26.962599"
       height="12.321622"
       x="40.493702"
       y="11.830856"
       ry="6.1608109" />
  </g>
  <g
     inkscape:groupmode="layer"
     id="layer3"
     inkscape:label="fondo2"
     style="display:inline;">
    <path
       style="opacity:1;vector-effect:none;fill:#ffcb61;fill-opacity:1;stroke:#db4e16;stroke-width:0;stroke-linecap:round;stroke-linejoin:round;stroke-miterlimit:4;stroke-dasharray:none;stroke-dashoffset:0;stroke-opacity:1;paint-order:markers fill stroke"
       d="m 0.62644531,500.08028 c 0,-136.4 0.67499999,-248.01614 1.49999999,-248.03587 0.825,-0.0197 10.0499997,-1.35358 20.4999997,-2.96412 29.942372,-4.61468 26.834122,-6.01363 45,20.25346 8.8,12.72442 16.564508,24.04718 17.254462,25.16167 0.727386,1.17496 15.321043,-6.10175 34.733393,-17.3188 20.787,-12.01138 34.68639,-18.88182 36.664,-18.12294 1.75179,0.67222 15.06543,7.92821 29.58588,16.12442 14.52044,8.1962 27.71968,14.90219 29.33162,14.90219 1.61194,0 11.68794,-4.06447 22.3911,-9.03214 l 19.4603,-9.03214 11.28962,6.9899 11.28962,6.9899 7.02978,-8.0972 7.02978,-8.0972 9.66558,7.38022 9.66558,7.38022 49.84568,-24.39868 49.84566,-24.39868 48.10158,16.04878 48.10158,16.04878 12.06416,-8.88113 c 6.63528,-4.88462 12.6688,-8.50743 13.40782,-8.0507 0.739,0.45674 4.02096,7.19894 7.29322,14.98267 3.27228,7.78374 6.58668,14.15566 7.36536,14.15982 0.77868,0.004 11.63322,-6.62617 24.12118,-14.73408 l 22.7054,-14.74165 24.87882,3.55158 24.87882,3.55159 37.3384,-13.89279 37.3384,-13.89278 50.502,21.08285 c 27.7761,11.59557 51.30452,21.08286 52.28538,21.08286 0.98086,0 17.63852,-12.07585 37.01702,-26.83521 l 35.23362,-26.83522 25.47906,12.76757 25.47904,12.76757 7.51194,-9.85031 7.51196,-9.85032 7.67918,6.93767 7.67916,6.93767 9.84106,-4.98683 c 5.41258,-2.74277 14.84774,-7.20102 20.96694,-9.90723 l 11.1258,-4.92039 14.1107,16.75668 14.1107,16.75667 13.0813,-5.86916 c 7.1946,-3.22804 13.7098,-5.86916 14.4781,-5.86916 0.7683,0 3.8469,4.99539 6.8414,11.10088 3.7005,7.54517 6.2362,10.61518 7.9166,9.58453 1.3597,-0.83399 9.6722,-6.54243 18.4722,-12.68541 8.8,-6.14299 17.0534,-11.81485 18.3408,-12.60413 1.4608,-0.8956 15.3152,12.48097 36.8557,35.58454 18.9832,20.36077 35.4322,37.01959 36.5533,37.01959 1.121,0 8.836,-7.26844 17.1443,-16.15209 l 15.1059,-16.15209 13.5522,9.43327 c 7.4537,5.18829 13.8273,9.08173 14.1636,8.65209 0.3362,-0.42965 6.1628,-8.15308 12.9479,-17.16318 6.785,-9.0101 13.174,-16.89963 14.1976,-17.53228 1.0237,-0.63265 5.7487,3.36381 10.5,8.88102 4.7513,5.51721 9.6837,10.03173 10.961,10.03227 1.2772,5.4e-4 4.7733,-2.91198 7.7691,-6.47227 2.9957,-3.56029 11.6257,-13.17898 19.1777,-21.37486 l 13.7309,-14.90159 V 491.70542 748.08028 H 674.62644 0.62644531 Z"
       id="path954"
       inkscape:connector-curvature="0"
       transform="scale(0.26458333)" />
    <path
       style="fill:none;stroke:#000000;stroke-width:1.5;stroke-linecap:butt;stroke-linejoin:miter;stroke-opacity:1;stroke-miterlimit:4;stroke-dasharray:none"
       d="m 0,66.433466 13.561803,-2.041559 9.42904,13.481023 17.813129,-10.260803 16.0361,9.064021 11.150301,-5.10268 6.047618,3.590761 3.590771,-4.346709 5.291669,3.968749 26.269359,-12.851211 25.3244,8.50447 6.99255,-5.10268 3.77977,8.504462 12.28422,-7.937502 13.41815,1.889889 19.65478,-7.37054 27.21428,11.339293 18.8988,-14.363105 13.50486,6.615092 4.07104,-5.29217 4.06386,3.694435 11.24416,-5.206335 7.40656,8.9453 7.52353,-3.27565 3.20691,5.91897 10.7782,-7.430889 18.70979,20.032741 8.6935,-8.88243 6.99254,4.913681 7.55952,-10.016363 5.48065,6.047613 11.19564,-12.161835 V 198.4375 H 0 Z"
       id="path946"
       inkscape:connector-curvature="0" />
  </g>
  <g
     inkscape:groupmode="layer"
     id="layer4"
     inkscape:label="fondo3"
     style="display:inline;opacity:1;">
    <path
       style="opacity:1;vector-effect:none;fill:#ff8f2b;fill-opacity:1;stroke:#db4e16;stroke-width:0;stroke-linecap:round;stroke-linejoin:round;stroke-miterlimit:4;stroke-dasharray:none;stroke-dashoffset:0;stroke-opacity:1;paint-order:markers fill stroke"
       d="m 1.4071284,579.23425 c 0,-134.90486 0.3670954,-170.40217 1.767767,-170.9392 0.9722718,-0.37277 8.4499256,-1.80817 16.6170096,-3.18977 l 14.849242,-2.51201 14.641113,7.36698 14.641112,7.36699 22.512871,-8.68147 22.512877,-8.68146 39.92064,7.73759 c 21.95638,4.25567 40.32348,7.49577 40.81579,7.20022 0.49232,-0.29555 4.29094,-6.27341 8.44139,-13.28413 4.15043,-7.01072 8.05055,-12.74677 8.66693,-12.74677 0.61637,0 8.19868,2.84506 16.84958,6.32236 l 15.72888,6.32236 46.12684,-21.34635 c 25.36975,-11.74049 46.81837,-21.37378 47.66359,-21.4073 0.84524,-0.0335 26.46743,9.91184 56.93823,22.10081 l 55.40147,22.16178 39.48074,-18.96291 39.48074,-18.9629 30.45384,8.83026 30.45385,8.83027 11.84961,-6.61906 11.84961,-6.61906 13.44701,9.49708 13.447,9.49708 32.57913,-11.9818 32.57911,-11.98181 19.02068,14.28092 c 10.46136,7.8545 19.65209,14.28091 20.42386,14.28091 0.77176,0 5.96615,-3.54542 11.5431,-7.87872 l 10.1399,-7.87872 28.10307,10.00004 c 15.45667,5.50003 28.98086,9.97077 30.05372,9.935 1.07287,-0.0358 10.86021,-6.60635 21.74966,-14.60128 l 19.79899,-14.53623 36.29695,9.2697 36.29695,9.2697 13.08024,-5.34054 13.08025,-5.34053 5.83066,5.72237 c 3.20687,3.14729 6.53348,5.72236 7.39249,5.72236 0.85901,0 6.87581,-2.43634 13.37068,-5.4141 l 11.80884,-5.41409 15.01526,6.83843 15.0153,6.83844 16.1083,-7.5633 16.1082,-7.56329 20.3668,7.56217 20.3667,7.56217 54.2813,-33.34936 54.2812,-33.34935 10.9119,9.90007 c 6.0016,5.44504 15.6849,14.76814 21.5185,20.71799 5.8337,5.94986 14.2706,14.01942 18.7488,17.93236 l 8.1421,7.11444 9.0264,-4.67999 9.0265,-4.67999 10.7174,8.06659 c 5.8946,4.43663 11.3196,8.06659 12.0556,8.06659 0.736,0 9.6657,-8.02274 19.8437,-17.82831 l 18.5055,-17.82832 V 549.94093 749.49568 H 675.27989 1.4071284 Z"
       id="path958"
       inkscape:connector-curvature="0"
       transform="scale(0.26458333)" />
    <path
       style="fill:none;stroke:#000000;stroke-width:1.5;stroke-linecap:butt;stroke-linejoin:miter;stroke-opacity:1;stroke-miterlimit:4;stroke-dasharray:none"
       d="m 0,107.80284 8.9663129,-1.63032 7.9870801,3.87585 11.80631,-4.54889 21.23164,4.11918 4.39189,-7.27784 8.978558,3.54045 24.85031,-11.477951 29.668329,11.871741 20.79149,-9.98187 16.20361,4.6363 6.29099,-3.520901 7.17411,5.032801 17.20035,-6.337181 10.39433,7.748511 5.66966,-4.346732 15.49702,5.480662 10.96131,-7.9375 19.19821,4.95566 6.88215,-2.8768 3.48039,3.26076 6.71741,-3.0924 7.94505,3.61141 8.50445,-3.968751 10.77236,3.968751 28.91514,-17.764891 15.49705,14.930071 4.76498,-2.62521 6.08592,4.58986 10.36109,-10.084116 V 198.4375 H 0 Z"
       id="path956"
       inkscape:connector-curvature="0" />
  </g>
  <g
     inkscape:groupmode="layer"
     id="layer5"
     inkscape:label="fondo4"
     style="display:inline;">
    <path
       style="opacity:1;vector-effect:none;fill:#ff6e29;fill-opacity:1;stroke:#db4e16;stroke-width:0;stroke-linecap:round;stroke-linejoin:round;stroke-miterlimit:4;stroke-dasharray:none;stroke-dashoffset:0;stroke-opacity:1;paint-order:markers fill stroke"
       d="M 1.5017405,621.59787 V 494.72329 l 13.4192095,6.08456 13.419208,6.08456 34.17754,-10.42485 34.177538,-10.42484 38.392874,12.29723 38.39287,12.29723 25.06586,-16.03743 25.06586,-16.03743 19.44452,12.04824 19.44452,12.04823 16.0339,-16.84595 16.03392,-16.84596 19.90476,9.99246 19.90478,9.99246 15.39804,-16.73969 c 15.08438,-16.39869 15.43778,-16.63783 17.3494,-11.73968 6.28026,16.09199 8.9241,22 9.84502,22 0.56954,0 13.12382,-9.4982 27.89842,-21.10712 14.7746,-11.60891 27.9359,-21.48358 29.24734,-21.9437 1.31142,-0.46012 9.58442,8.20987 18.38442,19.26664 8.8,11.05677 17.0671,20.99359 18.37134,22.08181 1.66262,1.38726 7.76636,-1.64904 20.42328,-10.15952 9.92856,-6.67596 19.10424,-12.13811 20.39038,-12.13811 1.28614,0 11.67872,4.16915 23.09462,9.26478 l 20.75616,9.26478 25.48212,-14.61041 c 14.01516,-8.03572 27.2821,-15.75955 29.4821,-17.16406 3.56906,-2.27853 6.7865,-0.73302 29.86468,14.34563 14.22558,9.29461 26.71426,16.89928 27.75264,16.89928 1.03838,0 13.562,-5.07148 27.8303,-11.26995 l 25.94234,-11.26995 20.68492,20.61452 c 17.19534,17.13682 21.1806,20.20313 23.6232,18.17596 1.61604,-1.34121 9.06254,-10.46901 16.54774,-20.284 l 13.60946,-17.84544 9.07236,5.31809 c 21.67498,12.70557 18.52392,12.3295 29.12134,3.47555 5.21034,-4.35313 12.0433,-9.99522 15.18438,-12.53798 l 5.71106,-4.62321 27.01454,19.18089 c 14.858,10.54949 28.34422,19.69114 29.96936,20.31476 2.11262,0.81069 8.47022,-7.32889 22.30556,-28.55768 10.64292,-16.33036 19.983,-30.41035 20.75574,-31.28886 0.77274,-0.87852 5.91914,1.97092 11.43644,6.3321 l 10.03144,7.9294 11.565,-11.68693 11.56496,-11.68694 18.2063,14.4582 c 10.0134,7.95201 19.3786,15.16906 20.8115,16.0379 1.657,1.00476 8.4285,-2.24342 18.6052,-8.92457 l 15.9999,-10.50428 9.3948,8.85549 c 5.1672,4.87052 12.3241,11.48751 15.9043,14.70442 l 6.5094,5.84892 6.7848,-6.57611 6.7848,-6.5761 7.368,13.17509 c 4.0523,7.24631 8.0769,13.61331 8.9435,14.14889 0.8666,0.53559 8.9195,-1.7064 17.8954,-4.98219 8.9759,-3.27579 16.6228,-5.95599 16.9932,-5.95599 0.3703,0 6.3499,6.975 13.2878,15.5 6.938,8.525 13.2074,16.20337 13.9321,17.06305 0.7247,0.85968 8.2978,-3.53447 16.829,-9.76478 l 15.5114,-11.32784 11.4691,11.34945 11.4691,11.34945 16.9027,-17.20928 16.9026,-17.20927 16.8931,7.12461 c 19.1036,8.05689 18.0145,7.73705 18.0145,5.29042 0,-1.0088 1.8352,-6.11537 4.0781,-11.34792 l 4.0781,-9.51374 9.9219,9.77274 9.9219,9.77274 V 609.89725 748.47243 H 675.50174 1.5017405 Z"
       id="path964"
       inkscape:connector-curvature="0"
       transform="scale(0.26458333)" />
    <path
       style="fill:none;stroke:#000000;stroke-width:1.5;stroke-linecap:butt;stroke-linejoin:miter;stroke-miterlimit:4;stroke-dasharray:none;stroke-opacity:1"
       d="m 0,130.32019 7.5603329,3.43591 17.8336701,-5.56155 20.48476,6.46323 13.229169,-8.50446 10.20536,6.2366 8.504459,-8.69345 10.528552,5.11089 8.370255,-8.89065 3.115651,7.39455 15.405191,-12.11925 9.79789,12.19581 10.22779,-6.87156 11.69743,5.27139 15.7129,-9.08375 14.05269,9.17202 14.32396,-6.21143 11.12186,11.02454 8.50446,-10.96131 7.58353,4.63628 7.91351,-6.90414 15.686,11.15029 11.11851,-16.98916 5.51243,4.32697 5.98887,-6.26667 11.02007,8.7235 8.50445,-5.66964 8.5045,7.74852 3.59076,-3.77977 4.53097,7.93968 9.26518,-3.40396 7.37049,9.07142 8.27493,-6.04891 5.89917,6.23791 8.6935,-9.26042 8.99922,3.7497 2.52904,-6.39553 5.52599,5.97286 V 198.4375 H 0 Z"
       id="path960"
       inkscape:connector-curvature="0" />
  </g>
  <g
     inkscape:groupmode="layer"
     id="layer6"
     inkscape:label="fondo5"
     style="display:inline;">
    <path
       style="opacity:1;vector-effect:none;fill:#da4e16;fill-opacity:1;stroke:#db4e16;stroke-width:0;stroke-linecap:round;stroke-linejoin:round;stroke-miterlimit:4;stroke-dasharray:none;stroke-dashoffset:0;stroke-opacity:1;paint-order:markers fill stroke"
       d="m 0.58947306,180.50846 c 0,-9.74989 0.20637037,-17.72708 0.45860084,-17.72708 0.2522305,0 1.6214491,0.47839 3.0427082,1.0631 l 2.5841076,1.0631 9.2604163,-3.64625 9.260417,-3.64625 9.991267,3.45575 9.991264,3.45576 5.773518,-2.84868 5.773515,-2.84867 5.83392,2.04865 5.833925,2.04866 3.893465,-2.71842 c 2.141411,-1.49513 4.095549,-2.71842 4.342532,-2.71842 0.246989,0 2.304272,0.71438 4.571741,1.5875 2.267474,0.87313 4.405164,1.57612 4.75043,1.5622 0.345265,-0.0139 2.175473,-1.93379 4.067132,-4.26638 l 3.439372,-4.24108 1.323128,1.50417 c 0.727716,0.82729 2.293271,2.66472 3.479006,4.08319 l 2.155882,2.57903 4.80588,-2.58353 4.80587,-2.58352 5.94323,1.74162 5.94323,1.74161 5.89449,-3.92578 5.89449,-3.92579 5.77488,4.4398 c 3.17618,2.44189 6.02735,4.3347 6.33594,4.20623 4.33834,-1.80606 18.66532,-7.21094 19.1144,-7.21094 0.32992,0 2.68684,1.57419 5.2376,3.49819 l 4.63775,3.49819 6.0053,-2.24816 c 6.93352,-2.59565 5.61845,-2.78185 15.69641,2.2225 3.41527,1.6959 6.53095,3.08345 6.92374,3.08345 0.39279,0 1.74116,-1.51446 2.99638,-3.36547 l 2.28223,-3.36548 4.1456,1.79651 4.1456,1.79652 5.96302,-1.87803 5.96303,-1.87803 7.12171,2.38866 c 3.91695,1.31376 7.29228,2.38865 7.50075,2.38865 0.20847,0 1.14296,-2.02406 2.07666,-4.49791 0.93369,-2.47386 1.79018,-4.49792 1.90332,-4.49792 0.11313,0 1.75149,1.2148 3.64081,2.69955 l 3.43511,2.69956 5.5736,-3.25132 5.57361,-3.25131 6.06417,3.23472 6.06414,3.23472 2.80454,-1.60458 2.8045,-1.60458 4.40394,2.64732 c 2.42215,1.45603 4.64542,2.56682 4.94059,2.46843 0.29519,-0.0984 1.19372,-1.95355 1.99673,-4.12257 l 1.46007,-3.94369 1.11057,2.55741 c 0.61084,1.40658 1.11058,2.62766 1.11058,2.7135 0,0.0858 0.35362,1.00242 0.78582,2.03681 l 0.78581,1.88071 4.77041,-2.65461 4.77041,-2.65462 3.44953,3.02852 3.44953,3.02852 4.31017,-0.8645 4.31017,-0.86449 2.90224,2.23906 2.90224,2.23906 3.57016,-3.90304 3.57018,-3.90304 4.06199,1.48149 4.06202,1.48149 5.25383,-5.23412 5.25383,-5.23412 v 25.25777 25.25778 H 178.65405 0.58947306 Z"
       id="path972"
       inkscape:connector-curvature="0" />
    <path
       style="fill:none;stroke:#000000;stroke-width:1.5;stroke-linecap:butt;stroke-linejoin:miter;stroke-miterlimit:4;stroke-dasharray:none;stroke-opacity:1"
       d="m 0,161.88481 6.6796128,2.54439 18.4208602,-7.16628 20.022738,6.76235 11.75985,-5.61266 11.389921,4.12671 8.120761,-5.73033 9.6217,3.74178 7.483546,-9.08717 7.064081,8.41519 9.23937,-5.20795 12.02713,3.4745 11.90425,-7.83775 11.54209,8.83999 19.85132,-7.68398 9.85121,7.30345 12.0649,-4.63075 16.5707,8.01809 5.0053,-7.09111 8.35818,3.6166 11.92035,-3.69712 14.68323,4.91036 3.66354,-9.58164 7.43184,5.79883 10.9441,-6.5176 12.29439,6.41448 5.61269,-3.20724 9.35442,5.61266 3.47451,-9.35443 3.87736,9.94449 9.52055,-5.28702 6.89407,6.22366 8.57311,-1.79397 5.78156,4.39398 6.83409,-7.71686 8.23137,2.78834 11.1188,-11.16422 v 51.99063 H 0 Z"
       id="path966"
       inkscape:connector-curvature="0" />
    <rect
       style="display:inline;opacity:1;vector-effect:none;fill:#c8c8c8;fill-opacity:1;stroke:#db4e16;stroke-width:0;stroke-linecap:round;stroke-linejoin:round;stroke-miterlimit:4;stroke-dasharray:none;stroke-dashoffset:0;stroke-opacity:1;paint-order:markers fill stroke"
       id="rect936-8"
       width="357.1875"
       height="198.4375"
       x="450.3653"
       y="11.286252" />
    <rect
       style="display:inline;opacity:1;vector-effect:none;fill:#ffffff;fill-opacity:0.63529412;stroke:#000000;stroke-width:1.5;stroke-linecap:round;stroke-linejoin:round;stroke-miterlimit:4;stroke-dasharray:none;stroke-dashoffset:0;stroke-opacity:1;paint-order:markers fill stroke"
       id="rect979-9"
       width="40.527939"
       height="14.287502"
       x="523.29279"
       y="50.606663"
       ry="7.1437511" />
    <rect
       style="display:inline;opacity:1;vector-effect:none;fill:#ffffff;fill-opacity:0.63529412;stroke:#000000;stroke-width:1.5;stroke-linecap:round;stroke-linejoin:round;stroke-miterlimit:4;stroke-dasharray:none;stroke-dashoffset:0;stroke-opacity:1;paint-order:markers fill stroke"
       id="rect979-2-0"
       width="40.527939"
       height="14.287502"
       x="584.08881"
       y="24.250839"
       ry="7.1437511" />
    <rect
       style="display:inline;opacity:1;vector-effect:none;fill:#ffffff;fill-opacity:0.63529412;stroke:#000000;stroke-width:1.5;stroke-linecap:round;stroke-linejoin:round;stroke-miterlimit:4;stroke-dasharray:none;stroke-dashoffset:0;stroke-opacity:1;paint-order:markers fill stroke"
       id="rect979-2-2-9-2-4"
       width="40.527939"
       height="14.287502"
       x="629.59717"
       y="47.534168"
       ry="7.1437511" />
    <rect
       style="display:inline;opacity:1;vector-effect:none;fill:#ffffff;fill-opacity:0.63529412;stroke:#000000;stroke-width:1.5;stroke-linecap:round;stroke-linejoin:round;stroke-miterlimit:4;stroke-dasharray:none;stroke-dashoffset:0;stroke-opacity:1;paint-order:markers fill stroke"
       id="rect979-2-2-9-2-6-0"
       width="21.014492"
       height="7.4083362"
       x="768.76794"
       y="30.600834"
       ry="3.7041681" />
    <rect
       style="display:inline;opacity:1;vector-effect:none;fill:#ffffff;fill-opacity:0.63529412;stroke:#000000;stroke-width:1.5;stroke-linecap:round;stroke-linejoin:round;stroke-miterlimit:4;stroke-dasharray:none;stroke-dashoffset:0;stroke-opacity:1;paint-order:markers fill stroke"
       id="rect979-2-2-9-2-6-8-0"
       width="31.068659"
       height="10.952779"
       x="747.30383"
       y="54.308475"
       ry="5.4763894" />
    <rect
       style="display:inline;opacity:1;vector-effect:none;fill:#ffffff;fill-opacity:0.63529412;stroke:#000000;stroke-width:1.5;stroke-linecap:round;stroke-linejoin:round;stroke-miterlimit:4;stroke-dasharray:none;stroke-dashoffset:0;stroke-opacity:1;paint-order:markers fill stroke"
       id="rect979-2-2-9-2-6-8-8-7"
       width="42.710323"
       height="19.819372"
       x="679.30597"
       y="21.284941"
       ry="9.9096842" />
    <rect
       style="display:inline;opacity:1;vector-effect:none;fill:#ffffff;fill-opacity:0.63529412;stroke:#000000;stroke-width:1.5;stroke-linecap:round;stroke-linejoin:round;stroke-miterlimit:4;stroke-dasharray:none;stroke-dashoffset:0;stroke-opacity:1;paint-order:markers fill stroke"
       id="rect979-5-4-6"
       width="26.962599"
       height="12.321622"
       x="457.88257"
       y="46.40044"
       ry="6.1608109" />
    <rect
       style="display:inline;opacity:1;vector-effect:none;fill:#ffffff;fill-opacity:0.63529412;stroke:#000000;stroke-width:1.5;stroke-linecap:round;stroke-linejoin:round;stroke-miterlimit:4;stroke-dasharray:none;stroke-dashoffset:0;stroke-opacity:1;paint-order:markers fill stroke"
       id="rect979-5-4-9-7"
       width="26.962599"
       height="12.321622"
       x="490.85898"
       y="23.117111"
       ry="6.1608109" />
    <path
       style="display:inline;opacity:1;vector-effect:none;fill:#646464;fill-opacity:1;stroke:#db4e16;stroke-width:0;stroke-linecap:round;stroke-linejoin:round;stroke-miterlimit:4;stroke-dasharray:none;stroke-dashoffset:0;stroke-opacity:1;paint-order:markers fill stroke"
       d="m 450.53106,143.59916 c 0,-36.08917 0.17859,-65.620937 0.39687,-65.626157 0.21828,-0.0052 2.65907,-0.358135 5.42396,-0.784257 7.92225,-1.220967 7.09986,-1.591106 11.90625,5.358728 2.32834,3.36667 4.38269,6.362483 4.56524,6.657359 0.19246,0.310875 4.0537,-1.614421 9.18988,-4.582266 5.4999,-3.178011 9.17744,-4.995815 9.70069,-4.795028 0.46349,0.177858 3.98606,2.097672 7.82793,4.266253 3.84186,2.168578 7.33416,3.942871 7.76065,3.942871 0.4265,0 3.09244,-1.075391 5.92432,-2.389754 l 5.14887,-2.389753 2.98704,1.849411 2.98705,1.849411 1.85996,-2.142384 1.85996,-2.142385 2.55735,1.952684 2.55736,1.952683 13.18833,-6.455484 13.18833,-6.455484 12.72688,4.246239 12.72687,4.24624 3.19198,-2.349799 c 1.75558,-1.292389 3.35195,-2.250924 3.54749,-2.130081 0.19552,0.120846 1.06387,1.90472 1.92966,3.964165 0.86579,2.059448 1.74273,3.745352 1.94875,3.746452 0.20603,0.0011 3.07796,-1.753174 6.38206,-3.898392 l 6.00747,-3.900395 6.58253,0.939689 6.58252,0.939692 9.87912,-3.675801 9.87911,-3.675798 13.36199,5.578171 c 7.34909,3.067994 13.57432,5.578173 13.83384,5.578173 0.25952,0 4.66686,-3.195069 9.79409,-7.100149 l 9.32223,-7.100152 6.74133,3.378086 6.74133,3.378086 1.98753,-2.606228 1.98754,-2.60623 2.03179,1.835592 2.03177,1.835592 2.60378,-1.319433 c 1.43208,-0.725691 3.92846,-1.905269 5.54749,-2.621287 l 2.94371,-1.301854 3.73345,4.433539 3.73346,4.433535 3.46109,-1.552882 c 1.90357,-0.854085 3.62739,-1.552882 3.83067,-1.552882 0.20328,0 1.01782,1.321697 1.81012,2.937108 0.97909,1.996326 1.64999,2.8086 2.0946,2.535907 0.35975,-0.22066 2.5591,-1.731018 4.88743,-3.356348 2.32834,-1.625333 4.51205,-3.126012 4.85267,-3.334843 0.38651,-0.236961 4.05215,3.302257 9.75141,9.415077 5.02264,5.38712 9.37477,9.794766 9.67139,9.794766 0.2966,0 2.33786,-1.923108 4.5361,-4.273574 l 3.99677,-4.273574 3.58568,2.495886 c 1.97213,1.372736 3.65848,2.402875 3.74746,2.289199 0.089,-0.113678 1.63057,-2.157169 3.42579,-4.541091 1.7952,-2.383922 3.48562,-4.471361 3.75645,-4.638749 0.27086,-0.167389 1.52101,0.890008 2.77813,2.34977 1.25711,1.459761 2.56214,2.654228 2.90009,2.654371 0.33793,1.43e-4 1.26294,-0.770461 2.05558,-1.712455 0.79261,-0.941993 3.07597,-3.486938 5.0741,-5.655431 l 3.63297,-3.942713 v 67.832508 67.83251 H 628.86022 450.53106 Z"
       id="path954-7"
       inkscape:connector-curvature="0" />
    <path
       style="display:inline;fill:none;stroke:#000000;stroke-width:1.5;stroke-linecap:butt;stroke-linejoin:miter;stroke-miterlimit:4;stroke-dasharray:none;stroke-opacity:1"
       d="m 450.36531,77.71972 13.5618,-2.041559 9.42904,13.481023 17.81313,-10.260803 16.03611,9.064021 11.1503,-5.10268 6.04761,3.590761 3.59077,-4.34671 5.29167,3.96875 26.26936,-12.851212 25.3244,8.504471 6.99255,-5.10268 3.77977,8.504462 12.28422,-7.937503 13.41815,1.88989 19.65478,-7.37054 27.21428,11.339293 18.8988,-14.363105 13.50486,6.615091 4.07104,-5.292169 4.06386,3.694435 11.24417,-5.206336 7.40656,8.945301 7.52351,-3.27565 3.20694,5.91897 10.77819,-7.430889 18.70978,20.032741 8.69349,-8.88243 6.99254,4.91368 7.55954,-10.016363 5.48064,6.047613 11.19565,-12.161834 V 209.72375 H 450.36531 Z"
       id="path946-0"
       inkscape:connector-curvature="0" />
    <path
       style="display:inline;opacity:1;vector-effect:none;fill:#87827d;fill-opacity:1;stroke:#db4e16;stroke-width:0;stroke-linecap:round;stroke-linejoin:round;stroke-miterlimit:4;stroke-dasharray:none;stroke-dashoffset:0;stroke-opacity:1;paint-order:markers fill stroke"
       d="m 450.73761,164.54198 c 0,-35.69358 0.0971,-45.08558 0.46773,-45.22766 0.25724,-0.0986 2.23571,-0.47842 4.39658,-0.84396 l 3.92886,-0.66464 3.8738,1.94918 3.87379,1.94918 5.95653,-2.29697 5.95653,-2.29697 10.56234,2.04724 c 5.80929,1.12598 10.66892,1.98325 10.79918,1.90506 0.13026,-0.0782 1.13531,-1.65984 2.23345,-3.51476 1.09813,-1.85492 2.13004,-3.37259 2.29312,-3.37259 0.16309,0 2.16924,0.75276 4.45812,1.67279 l 4.1616,1.6728 12.20439,-5.64789 c 6.71242,-3.10634 12.38737,-5.65515 12.611,-5.66401 0.22363,-0.009 7.00284,2.6225 15.0649,5.8475 l 14.65831,5.86364 10.44594,-5.01727 10.44595,-5.01727 8.05758,2.33634 8.05758,2.33634 3.13521,-1.75129 3.13521,-1.75129 3.55785,2.51276 3.55785,2.51277 8.6199,-3.17018 8.61989,-3.17019 5.03255,3.77849 c 2.7679,2.07817 5.19962,3.7785 5.40382,3.7785 0.20419,0 1.57854,-0.93806 3.05411,-2.08458 l 2.68285,-2.08458 7.4356,2.64584 c 4.08958,1.45522 7.66785,2.6381 7.95171,2.62864 0.28387,-0.009 2.87343,-1.74793 5.7546,-3.86326 l 5.23848,-3.84604 9.60357,2.45261 9.60357,2.45261 3.46081,-1.41302 3.46082,-1.41302 1.5427,1.51405 c 0.84848,0.83272 1.72865,1.51404 1.95592,1.51404 0.22728,0 1.81923,-0.64462 3.53766,-1.43248 l 3.12443,-1.43248 3.97277,1.80933 3.9728,1.80934 4.26199,-2.00112 4.26196,-2.00112 5.38871,2.00082 5.38869,2.00083 14.36193,-8.82369 14.3619,-8.823679 2.88711,2.619394 c 1.58792,1.440665 4.14996,3.907405 5.69343,5.481635 1.5435,1.57423 3.77577,3.7093 4.96062,4.7446 l 2.15427,1.88236 2.38823,-1.23824 2.38826,-1.23825 2.83565,2.13428 c 1.55961,1.17386 2.99498,2.13429 3.18971,2.13429 0.19473,0 2.55738,-2.12269 5.25031,-4.71707 l 4.89625,-4.71708 v 52.79886 52.79887 H 629.03312 450.73761 Z"
       id="path958-7"
       inkscape:connector-curvature="0" />
    <path
       style="display:inline;opacity:1;fill:none;stroke:#000000;stroke-width:1.5;stroke-linecap:butt;stroke-linejoin:miter;stroke-miterlimit:4;stroke-dasharray:none;stroke-opacity:1"
       d="m 450.36531,119.08909 8.96631,-1.63032 7.98708,3.87585 11.80632,-4.54889 21.23164,4.11918 4.39189,-7.27784 8.97855,3.54045 24.85031,-11.47795 29.66833,11.87174 20.79149,-9.98187 16.20361,4.6363 6.29099,-3.5209 7.17411,5.0328 17.20035,-6.33718 10.39433,7.74851 5.66966,-4.34673 15.49702,5.48066 10.96131,-7.9375 19.19821,4.95566 6.88215,-2.8768 3.48039,3.26076 6.71742,-3.0924 7.94504,3.61141 8.50445,-3.96875 10.77237,3.96875 28.91513,-17.764887 15.49706,14.930067 4.76497,-2.62521 6.08591,4.58986 10.36111,-10.08411 v 106.484 H 450.36531 Z"
       id="path956-1"
       inkscape:connector-curvature="0" />
    <path
       style="display:inline;opacity:1;vector-effect:none;fill:#a0a0a0;fill-opacity:1;stroke:#db4e16;stroke-width:0;stroke-linecap:round;stroke-linejoin:round;stroke-miterlimit:4;stroke-dasharray:none;stroke-dashoffset:0;stroke-opacity:1;paint-order:markers fill stroke"
       d="m 450.76265,175.75069 v -33.5689 l 3.5505,1.60987 3.55049,1.60987 9.04281,-2.75824 9.04281,-2.75824 10.15812,3.25365 10.15811,3.25364 6.63201,-4.24324 6.63201,-4.24324 5.14469,3.18777 5.1447,3.18776 4.2423,-4.45716 4.24231,-4.45716 5.26647,2.64384 5.26647,2.64384 4.07406,-4.42905 c 3.99108,-4.33882 4.08458,-4.40209 4.59037,-3.10612 1.66165,4.25767 2.36116,5.82083 2.60482,5.82083 0.15069,0 3.47235,-2.51306 7.38146,-5.58459 3.90911,-3.07152 7.39137,-5.6842 7.73836,-5.80594 0.34698,-0.12174 2.53588,2.1722 4.86421,5.09764 2.32833,2.92543 4.51567,5.55455 4.86075,5.84248 0.4399,0.36704 2.05485,-0.43631 5.40366,-2.68804 2.62693,-1.76635 5.05466,-3.21155 5.39495,-3.21155 0.3403,0 3.09,1.10309 6.11046,2.45131 l 5.49173,2.45131 6.74214,-3.86567 c 3.70818,-2.12612 7.21839,-4.16972 7.80048,-4.54133 0.94431,-0.60286 1.79559,-0.19394 7.90169,3.79562 3.76385,2.45919 7.06815,4.47126 7.34289,4.47126 0.27474,0 3.58828,-1.34183 7.36343,-2.98184 l 6.86391,-2.98184 5.47289,5.45426 c 4.5496,4.53412 5.60403,5.34541 6.2503,4.80906 0.42758,-0.35487 2.3978,-2.76993 4.37826,-5.36681 l 3.60084,-4.72161 2.40039,1.40708 c 5.73484,3.36168 4.90112,3.26218 7.70502,0.91957 1.37857,-1.15176 3.18646,-2.64457 4.01754,-3.31734 l 1.51105,-1.22322 7.14759,5.07494 c 3.93118,2.79122 7.49941,5.20995 7.9294,5.37495 0.55896,0.21449 2.24108,-1.9391 5.90168,-7.55589 2.81594,-4.32074 5.28717,-8.04607 5.49162,-8.27851 0.20445,-0.23244 1.56611,0.52147 3.02589,1.67537 l 2.65415,2.09799 3.05991,-3.09217 3.05988,-3.09217 4.81709,3.8254 c 2.64937,2.10397 5.12725,4.01348 5.50637,4.24336 0.43842,0.26584 2.23004,-0.59357 4.92263,-2.36129 l 4.2333,-2.77926 2.48571,2.34302 c 1.36716,1.28865 3.26075,3.0394 4.20801,3.89054 l 1.72228,1.54753 1.79515,-1.73993 1.79514,-1.73993 1.94945,3.48591 c 1.07217,1.91725 2.13702,3.60186 2.3663,3.74356 0.22929,0.14171 2.35996,-0.45148 4.73483,-1.3182 2.37487,-0.86672 4.39811,-1.57586 4.49612,-1.57586 0.098,0 1.68007,1.84547 3.51573,4.10104 1.83568,2.25558 3.49445,4.28714 3.6862,4.5146 0.19174,0.22746 2.19546,-0.93516 4.45267,-2.5836 l 4.10406,-2.99715 3.03453,3.00287 3.03453,3.00288 4.47218,-4.55329 4.47214,-4.55329 4.46964,1.88505 c 5.05449,2.13172 4.76633,2.0471 4.76633,1.39976 0,-0.26691 0.48557,-1.61802 1.079,-3.00247 l 1.079,-2.51718 2.62517,2.58571 2.62517,2.5857 v 36.66469 36.66468 H 629.09181 450.76265 Z"
       id="path964-5"
       inkscape:connector-curvature="0" />
    <path
       style="display:inline;fill:none;stroke:#000000;stroke-width:1.5;stroke-linecap:butt;stroke-linejoin:miter;stroke-miterlimit:4;stroke-dasharray:none;stroke-opacity:1"
       d="m 450.36531,141.60644 7.56033,3.43591 17.83367,-5.56155 20.48477,6.46323 13.22917,-8.50446 10.20536,6.2366 8.50445,-8.69345 10.52856,5.11089 8.37025,-8.89065 3.11565,7.39455 15.40519,-12.11925 9.79789,12.19581 10.22779,-6.87156 11.69743,5.27139 15.7129,-9.08375 14.05269,9.17202 14.32396,-6.21143 11.12186,11.02454 8.50446,-10.96131 7.58353,4.63628 7.91351,-6.90414 15.686,11.15029 11.11851,-16.98916 5.51243,4.32697 5.98887,-6.26667 11.02009,8.7235 8.50444,-5.66964 8.50448,7.74852 3.59077,-3.77977 4.53099,7.93968 9.26517,-3.40396 7.37048,9.07142 8.27495,-6.04891 5.89915,6.23791 8.69352,-9.26042 8.99922,3.7497 2.52902,-6.39553 5.526,5.97286 v 73.87085 H 450.36531 Z"
       id="path960-6"
       inkscape:connector-curvature="0" />
    <path
       style="display:inline;opacity:1;vector-effect:none;fill:#bebebe;fill-opacity:1;stroke:#db4e16;stroke-width:0;stroke-linecap:round;stroke-linejoin:round;stroke-miterlimit:4;stroke-dasharray:none;stroke-dashoffset:0;stroke-opacity:1;paint-order:markers fill stroke"
       d="m 450.95478,191.79471 c 0,-9.74989 0.20637,-17.72708 0.4586,-17.72708 0.25224,0 1.62145,0.47839 3.04271,1.0631 l 2.58411,1.0631 9.26042,-3.64625 9.26041,-3.64625 9.99127,3.45575 9.99127,3.45576 5.77351,-2.84868 5.77352,-2.84867 5.83392,2.04865 5.83393,2.04866 3.89346,-2.71842 c 2.14141,-1.49513 4.09555,-2.71842 4.34253,-2.71842 0.24699,0 2.30427,0.71438 4.57174,1.5875 2.26748,0.87313 4.40517,1.57612 4.75043,1.5622 0.34527,-0.0139 2.17548,-1.93379 4.06713,-4.26638 l 3.43938,-4.24108 1.32312,1.50417 c 0.72772,0.82729 2.29328,2.66472 3.47901,4.08319 l 2.15588,2.57903 4.80588,-2.58353 4.80587,-2.58352 5.94323,1.74162 5.94323,1.74161 5.89449,-3.92578 5.89449,-3.92579 5.77488,4.4398 c 3.17618,2.44189 6.02735,4.3347 6.33594,4.20623 4.33834,-1.80606 18.66532,-7.21094 19.1144,-7.21094 0.32992,0 2.68684,1.57419 5.2376,3.49819 l 4.63775,3.49819 6.0053,-2.24816 c 6.93352,-2.59565 5.61845,-2.78185 15.69641,2.2225 3.41527,1.6959 6.53095,3.08345 6.92374,3.08345 0.39279,0 1.74116,-1.51446 2.99638,-3.36547 l 2.28223,-3.36548 4.1456,1.79651 4.1456,1.79652 5.96302,-1.87803 5.96303,-1.87803 7.12171,2.38866 c 3.91695,1.31376 7.29228,2.38865 7.50075,2.38865 0.20847,0 1.14296,-2.02406 2.07666,-4.49791 0.93369,-2.47386 1.79018,-4.49792 1.90332,-4.49792 0.11313,0 1.75149,1.2148 3.64081,2.69955 l 3.43511,2.69956 5.5736,-3.25132 5.5736,-3.25131 6.06417,3.23472 6.06415,3.23472 2.80455,-1.60458 2.80448,-1.60458 4.40396,2.64732 c 2.42213,1.45603 4.64543,2.56682 4.94059,2.46843 0.29517,-0.0984 1.19373,-1.95355 1.99674,-4.12257 l 1.46005,-3.94369 1.11058,2.55741 c 0.61082,1.40658 1.11057,2.62766 1.11057,2.7135 0,0.0858 0.35361,1.00242 0.78584,2.03681 l 0.78578,1.88071 4.77041,-2.65461 4.77041,-2.65462 3.44954,3.02852 3.44953,3.02852 4.31017,-0.8645 4.31016,-0.86449 2.90224,2.23906 2.90225,2.23906 3.57015,-3.90304 3.57018,-3.90304 4.06199,1.48149 4.06204,1.48149 5.25383,-5.23412 5.25384,-5.23412 v 25.25777 25.25778 H 629.01936 450.95478 Z"
       id="path972-8"
       inkscape:connector-curvature="0" />
    <path
       style="display:inline;fill:none;stroke:#000000;stroke-width:1.5;stroke-linecap:butt;stroke-linejoin:miter;stroke-miterlimit:4;stroke-dasharray:none;stroke-opacity:1"
       d="m 450.36531,173.17106 6.67961,2.54439 18.42086,-7.16628 20.02274,6.76235 11.75985,-5.61266 11.38993,4.12671 8.12076,-5.73033 9.6217,3.74178 7.48354,-9.08717 7.06408,8.41519 9.23937,-5.20795 12.02713,3.4745 11.90425,-7.83775 11.54209,8.83999 19.85132,-7.68398 9.85121,7.30345 12.0649,-4.63075 16.5707,8.01809 5.0053,-7.09111 8.35818,3.6166 11.92035,-3.69712 14.68323,4.91036 3.66354,-9.58164 7.43184,5.79883 10.94411,-6.5176 12.29437,6.41448 5.61271,-3.20724 9.35443,5.61266 3.4745,-9.35443 3.87734,9.94449 9.52056,-5.28702 6.89409,6.22366 8.5731,-1.79397 5.78155,4.39398 6.8341,-7.71686 8.23135,2.78834 11.11882,-11.16422 v 51.99063 H 450.36531 Z"
       id="path966-1"
       inkscape:connector-curvature="0" />
  </g>
</svg>
